<svg width="18" height="18" viewBox="0 0 18 18" fill="none" xmlns="http://www.w3.org/2000/svg">
<path fill-rule="evenodd" clip-rule="evenodd" d="M8.99984 17.3337C13.6022 17.3337 17.3332 13.6027 17.3332 9.00033C17.3332 4.39795 13.6022 0.666992 8.99984 0.666992C4.39746 0.666992 0.666504 4.39795 0.666504 9.00033C0.666504 13.6027 4.39746 17.3337 8.99984 17.3337ZM14.2663 13.0884C15.1439 11.9595 15.6665 10.541 15.6665 9.00033C15.6665 5.60064 13.1218 2.79532 9.83317 2.38524V5.77201C11.2709 6.14204 12.3332 7.44713 12.3332 9.00033C12.3332 9.61853 12.1649 10.1974 11.8716 10.6937L14.2663 13.0884ZM13.0878 14.2669L10.6931 11.8722C10.1968 12.1654 9.61798 12.3337 8.99984 12.3337C8.3817 12.3337 7.80285 12.1654 7.30661 11.8722L4.91187 14.2669C6.04076 15.1444 7.45928 15.667 8.99984 15.667C10.5404 15.667 11.9589 15.1444 13.0878 14.2669ZM5.6665 9.00033C5.6665 9.61853 5.8348 10.1974 6.12807 10.6937L3.73334 13.0884C2.85576 11.9595 2.33317 10.541 2.33317 9.00033C2.33317 5.60064 4.87791 2.79532 8.1665 2.38524V5.77201C6.72881 6.14204 5.6665 7.44713 5.6665 9.00033ZM8.99984 10.667C9.92031 10.667 10.6665 9.9208 10.6665 9.00033C10.6665 8.07985 9.92031 7.33366 8.99984 7.33366C8.07936 7.33366 7.33317 8.07985 7.33317 9.00033C7.33317 9.9208 8.07936 10.667 8.99984 10.667Z" fill="#72767C"/>
</svg>
