<svg width="18" height="17" viewBox="0 0 18 17" fill="none" xmlns="http://www.w3.org/2000/svg">
<path d="M3.58366 13.0837H2.33366V3.91699H8.83366L8.16699 4.58366C8.00033 4.75033 7.91699 4.91699 7.91699 5.16699C7.91699 5.66699 8.25033 6.00033 8.75033 6.00033C9.00033 6.00033 9.16699 5.91699 9.33366 5.75033L11.417 3.66699C11.7503 3.33366 11.7503 2.83366 11.417 2.50033L9.33366 0.416992C9.00033 0.0836589 8.50033 0.0836589 8.16699 0.416992C7.83366 0.750326 7.83366 1.25033 8.16699 1.58366L8.83366 2.25033H1.50033C1.00033 2.25033 0.666992 2.58366 0.666992 3.08366V13.917C0.666992 14.417 1.00033 14.7503 1.50033 14.7503H3.58366C4.08366 14.7503 4.41699 14.417 4.41699 13.917C4.41699 13.417 4.08366 13.0837 3.58366 13.0837ZM16.5003 2.25033H14.417C13.917 2.25033 13.5837 2.58366 13.5837 3.08366C13.5837 3.58366 13.917 3.91699 14.417 3.91699H15.667V13.0837H8.66699L9.33366 12.417C9.66699 12.0837 9.66699 11.5837 9.33366 11.2503C9.00033 10.917 8.50033 10.917 8.16699 11.2503L6.08366 13.3337C5.75033 13.667 5.75033 14.167 6.08366 14.5003L8.16699 16.5837C8.33366 16.7503 8.50033 16.8337 8.75033 16.8337C9.00033 16.8337 9.16699 16.7503 9.33366 16.5837C9.66699 16.2503 9.66699 15.7503 9.33366 15.417L8.66699 14.7503H16.5003C17.0003 14.7503 17.3337 14.417 17.3337 13.917V3.08366C17.3337 2.58366 17.0003 2.25033 16.5003 2.25033Z" fill="#A162F7"/>
</svg>
