<svg width="13" height="19" viewBox="0 0 13 19" fill="none" xmlns="http://www.w3.org/2000/svg">
<path fill-rule="evenodd" clip-rule="evenodd" d="M7.19986 18.5C6.79849 18.5 4.62449 18.2815 4.50353 18.2571C1.96584 17.7421 0 13.8689 0 9.5C0 5.13455 1.96318 1.26165 4.49813 0.742877C4.62002 0.718017 6.79838 0.5 7.19959 0.5C10.1819 0.5 12.5995 4.52911 12.5995 9.49973C12.5995 14.4704 10.1819 18.4995 7.19959 18.4995L7.19986 18.5ZM8.09995 14.9001C9.5911 14.9001 10.7999 12.4825 10.7999 9.50019C10.7999 6.51789 9.5911 4.10027 8.09995 4.10027C6.6088 4.10027 5.39999 6.51789 5.39999 9.50019C5.39999 12.4825 6.6088 14.9001 8.09995 14.9001ZM7.38624 5.37427C7.63439 5.1332 7.90559 5.00031 8.18959 5.00031C8.47435 5.00031 8.74632 5.1338 8.99491 5.37622C9.05684 5.43649 8.96794 5.9102 8.72838 6.79733C8.54743 7.4027 8.36783 7.70629 8.18958 7.70795C8.01134 7.70961 7.8328 7.40933 7.65395 6.80713C7.41379 5.91186 7.32459 5.43424 7.38622 5.3743L7.38624 5.37427ZM9.57907 6.39443C9.75113 6.88725 9.88748 7.46642 9.97519 8.11611C10.0632 8.76746 10.0944 9.43038 10.0754 10.074C10.0707 10.2341 9.85586 10.1773 9.43098 9.90349C9.13552 9.67673 8.95999 9.35987 8.90426 8.95279C8.84866 8.54568 8.91224 8.04457 9.09515 7.44942C9.37494 6.62362 9.53633 6.27197 9.5791 6.39443L9.57907 6.39443ZM9.85313 11.7241C9.71135 12.2698 9.52453 12.7606 9.29463 13.1621C9.06425 13.5647 8.8116 13.8409 8.55125 13.9962C8.48646 14.0349 8.44262 13.5261 8.41957 12.47C8.41791 11.7243 8.48903 11.2248 8.63276 10.9717C8.77665 10.7184 8.99451 10.7089 9.28634 10.9434C9.69947 11.3283 9.88839 11.5886 9.85314 11.7241L9.85313 11.7241ZM7.82982 13.998C7.57007 13.8425 7.3183 13.5666 7.08838 13.1651C6.858 12.7625 6.67073 12.2703 6.52879 11.7228C6.49353 11.5866 6.68111 11.3289 7.09185 10.9498C7.38625 10.7158 7.60576 10.724 7.75025 10.9747C7.89489 11.2253 7.96585 11.7205 7.96344 12.4604C7.93888 13.5241 7.89428 14.0367 7.8298 13.998L7.82982 13.998ZM6.30523 10.0734C6.2864 9.43142 6.31774 8.77031 6.40558 8.12063C6.49357 7.46928 6.63037 6.88875 6.80305 6.39504C6.84599 6.27225 7.00585 6.6218 7.28279 7.44371C7.46631 8.04472 7.53094 8.5493 7.4764 8.9573C7.42201 9.36546 7.24814 9.68097 6.95465 9.90395C6.52632 10.1764 6.30979 10.2329 6.30527 10.0734L6.30523 10.0734Z" fill="#F6CC0D"/>
</svg>
