<svg width="18" height="17" viewBox="0 0 18 17" fill="none" xmlns="http://www.w3.org/2000/svg">
<path d="M12.0387 9.09657C12.8557 8.45379 13.452 7.57234 13.7447 6.57486C14.0374 5.57737 14.012 4.51346 13.6718 3.53113C13.3317 2.5488 12.6939 1.6969 11.8471 1.09395C11.0003 0.491005 9.98656 0.166992 8.94702 0.166992C7.90748 0.166992 6.89378 0.491005 6.04696 1.09395C5.20014 1.6969 4.56231 2.5488 4.2222 3.53113C3.88209 4.51346 3.85661 5.57737 4.14932 6.57486C4.44203 7.57234 5.03836 8.45379 5.85535 9.09657C4.45542 9.65744 3.23392 10.5877 2.3211 11.7882C1.40827 12.9886 0.838321 14.4143 0.672019 15.9132C0.659981 16.0227 0.669616 16.1334 0.700373 16.2391C0.731131 16.3448 0.782408 16.4434 0.851278 16.5293C0.990368 16.7028 1.19267 16.8139 1.41369 16.8382C1.6347 16.8626 1.85632 16.7981 2.02979 16.659C2.20326 16.5199 2.31437 16.3176 2.33869 16.0966C2.52167 14.4676 3.29842 12.9631 4.52053 11.8706C5.74265 10.778 7.32444 10.1741 8.96369 10.1741C10.6029 10.1741 12.1847 10.778 13.4068 11.8706C14.6289 12.9631 15.4057 14.4676 15.5887 16.0966C15.6113 16.3013 15.709 16.4905 15.8629 16.6274C16.0168 16.7644 16.216 16.8395 16.422 16.8382H16.5137C16.7321 16.8131 16.9318 16.7027 17.0692 16.5309C17.2065 16.3592 17.2704 16.1402 17.247 15.9216C17.0799 14.4184 16.5069 12.9891 15.5894 11.7867C14.6719 10.5844 13.4444 9.65447 12.0387 9.09657ZM8.94702 8.50491C8.28775 8.50491 7.64328 8.30941 7.09512 7.94314C6.54695 7.57687 6.11971 7.05627 5.86742 6.44718C5.61513 5.8381 5.54912 5.16787 5.67773 4.52127C5.80635 3.87467 6.12382 3.28072 6.59 2.81455C7.05617 2.34837 7.65012 2.03091 8.29672 1.90229C8.94332 1.77367 9.61354 1.83968 10.2226 2.09197C10.8317 2.34427 11.3523 2.77151 11.7186 3.31967C12.0849 3.86784 12.2804 4.5123 12.2804 5.17157C12.2804 6.05563 11.9292 6.90347 11.304 7.5286C10.6789 8.15372 9.83107 8.50491 8.94702 8.50491Z" fill="#A162F7"/>
</svg>
